<svg xmlns="http://www.w3.org/2000/svg" data-name="Layer 1" viewBox="0 0 100 100" id="positive-review"><path d="M95.7 56.32a6.1 6.1 0 00-7.85-1.55L71.71 63.89a6.45 6.45 0 00-6.44-6.11H47.14a13.85 13.85 0 01-6.37-1.56 15.42 15.42 0 00-7.07-1.73H22.43V49.31A1.45 1.45 0 0021 47.86H4.45A1.45 1.45 0 003 49.31v37A1.45 1.45 0 004.45 87.8H21a1.45 1.45 0 001.46-1.45V80.22l30.62 7.32a9.58 9.58 0 007.27-1.18L94.11 65.3a6.09 6.09 0 002.8-4.13A6.17 6.17 0 0095.7 56.32zM19.52 84.9H5.91V50.76H19.52zM94 60.66a3.18 3.18 0 01-1.46 2.18l-33.79 21a6.68 6.68 0 01-5.07.82L22.43 77.24V57.4H33.7a12.44 12.44 0 015.73 1.4 16.82 16.82 0 007.71 1.88H65.27a3.54 3.54 0 110 7.08H42.78v2.91H65.27a6.45 6.45 0 005.59-3.24l.12.21L89.28 57.3a3.21 3.21 0 014.13.82A3.14 3.14 0 0194 60.66zM51.1 29.41l-1.27 7.86A1.45 1.45 0 0051.27 39a1.41 1.41 0 00.69-.17L59 35l7.08 3.63a1.46 1.46 0 002.1-1.55l-1.43-7.83 5.64-5.62a1.45 1.45 0 00-.83-2.47L63.64 20.1 60 13a1.49 1.49 0 00-1.31-.79 1.44 1.44 0 00-1.3.82L54 20.2l-7.86 1.23a1.44 1.44 0 00-.78 2.48zM55.19 23a1.41 1.41 0 001.08-.81l2.51-5.2 2.61 5.15a1.48 1.48 0 001.1.79l5.73.77-4.1 4.07a1.47 1.47 0 00-.4 1.29l1 5.69-5.15-2.63a1.43 1.43 0 00-1.35 0l-5.09 2.74.92-5.7a1.47 1.47 0 00-.43-1.29l-4.18-4zM77.86 43.64L77 49a1.45 1.45 0 001.43 1.68 1.5 1.5 0 00.69-.17L83.93 48l4.86 2.5a1.46 1.46 0 002.1-1.56l-1-5.38 3.87-3.86A1.46 1.46 0 0093 37.18l-5.42-.73-2.47-4.88a1.48 1.48 0 00-1.31-.79 1.44 1.44 0 00-1.3.82l-2.37 4.93-5.4.84a1.45 1.45 0 00-1.16 1 1.44 1.44 0 00.38 1.48zm3.43-4.35a1.46 1.46 0 001.08-.81l1.43-3 1.48 2.93a1.46 1.46 0 001.11.78l3.25.44L87.31 42a1.44 1.44 0 00-.4 1.29l.59 3.24L84.57 45a1.43 1.43 0 00-1.35 0l-2.89 1.56.52-3.25a1.48 1.48 0 00-.43-1.28L78 39.79z"></path><path d="M27.87,43.64,27,49a1.47,1.47,0,0,0,.6,1.41,1.43,1.43,0,0,0,.84.27,1.53,1.53,0,0,0,.69-.17L33.94,48l4.87,2.5a1.45,1.45,0,0,0,2.09-1.56l-1-5.38,3.88-3.86a1.45,1.45,0,0,0,.35-1.49,1.47,1.47,0,0,0-1.18-1l-5.42-.73-2.48-4.88a1.48,1.48,0,0,0-1.31-.79,1.43,1.43,0,0,0-1.29.82L30.1,36.53l-5.4.84a1.48,1.48,0,0,0-1.17,1,1.46,1.46,0,0,0,.39,1.48Zm3.43-4.35a1.49,1.49,0,0,0,1.09-.81l1.42-3,1.49,2.93a1.45,1.45,0,0,0,1.1.78l3.26.44L37.33,42a1.47,1.47,0,0,0-.41,1.29l.59,3.24L34.59,45a1.43,1.43,0,0,0-1.35,0l-2.9,1.56.52-3.25a1.43,1.43,0,0,0-.43-1.28l-2.38-2.27Z"></path></svg>